<svg id="Capa_1" enable-background="new 0 0 512.032 512.032" height="512" viewBox="0 0 512.032 512.032" width="512" xmlns="http://www.w3.org/2000/svg"><g><g><path d="m502.711 123.72c-3.268-12.196-14.198-19.925-26.395-18.091-.912.137-1.825.327-2.736.571l-38.09 10.206 44.464-44.464c11.008-11.008 11.008-28.856 0-39.864-11.008-11.008-28.856-11.008-39.864 0l-44.464 44.464 10.206-38.09c3.512-13.108-4.266-26.58-17.374-30.092-13.107-3.512-26.58 4.266-30.092 17.374l-36.29 135.434 22.704 6.083 7.945 22.704 133.573-37.289c13.108-3.513 19.926-15.838 16.413-28.946z" fill="#bbf49b"/><path d="m503.673 123.574c-3.267-12.195-15.158-19.765-27.354-17.933-1.405 9.378-8.193 17.496-17.937 20.107l-134.246 35.971 20.646 5.532 6.083 22.704 135.435-36.289c13.106-3.512 20.885-16.985 17.373-30.092z" fill="#9be69d"/><path d="m13.776 452.398 119.045-169.757 7.7-3.568 1.044-8.901 95.813-136.621 7.632-3.636c.483-.689 1.156-8.79 1.156-8.79s1.426-2.004 1.683-2.33c24.039-30.487 69.704-33.526 97.552-5.678l30.79 30.79 21.725 22.725c28.741 28.741 25.583 75.459-7.695 98.796l-330.587 231.829c-22.32 15.652-48.284.577-51.733-21.066-1.214-7.621.363-15.933 5.875-23.793z" fill="#ffaa5f"/><path d="m398.915 166.632-27.918-27.918c28.741 28.741 24.583 76.459-8.695 99.796l-330.585 231.829c-7.861 5.512-16.166 7.063-23.788 5.848 3.451 21.642 29.387 37.722 51.706 22.07l246.22-173.667 5.403-5.864 7.066-2.88 71.895-49.418c33.279-23.337 37.437-71.055 8.696-99.796z" fill="#ff8c5a"/></g><g><path d="m340.694 291.999-27.176 19.058-55.489-55.489c-2.93-2.93-7.678-2.929-10.607 0s-2.929 7.678 0 10.607l53.627 53.627-245.731 172.322c-7.529 5.28-16.061 6.331-24.021 2.96-8.34-3.532-14.62-11.408-16-20.065-.997-6.255.597-12.586 4.608-18.306l54.95-78.338c2.378-3.391 1.558-8.068-1.833-10.447s-8.068-1.559-10.447 1.833l-54.95 78.339c-6.293 8.975-8.763 19.099-7.141 29.279 2.208 13.854 11.773 25.931 24.963 31.517 4.931 2.088 10.059 3.12 15.176 3.12 8.073 0 16.118-2.569 23.307-7.61l285.377-200.126c3.391-2.378 4.212-7.056 1.834-10.447-2.379-3.391-7.054-4.211-10.447-1.834z"/><path d="m510.946 121.787c-4.251-15.86-19.613-25.996-35.753-23.567-1.19.179-2.39.429-3.563.743l-11.053 2.962 24.672-24.672c13.914-13.915 13.914-36.556-.001-50.471-13.914-13.914-36.555-13.914-50.471 0l-24.671 24.672 2.961-11.053c2.218-8.274 1.08-16.917-3.203-24.336s-11.199-12.725-19.474-14.942c-8.279-2.218-16.919-1.079-24.336 3.204-7.418 4.283-12.725 11.199-14.941 19.474l-3.313 12.367c-1.072 4.001 1.302 8.113 5.303 9.186 4.003 1.073 8.114-1.303 9.185-5.304l3.314-12.367c1.181-4.404 4.005-8.085 7.953-10.365 3.949-2.28 8.551-2.884 12.953-1.705 4.404 1.18 8.086 4.005 10.366 7.954 2.279 3.949 2.885 8.548 1.705 12.953l-10.206 38.09c-.879 3.279.555 6.739 3.494 8.436 2.94 1.697 6.651 1.21 9.054-1.192l44.464-44.464c8.065-8.065 21.19-8.066 29.257 0 8.066 8.066 8.066 21.191 0 29.257l-44.464 44.464c-2.4 2.4-2.889 6.113-1.191 9.053 1.697 2.94 5.158 4.374 8.437 3.495l38.09-10.206c.631-.17 1.272-.303 1.909-.399 8.573-1.289 16.763 4.134 19.036 12.616 2.414 9.011-3.019 18.324-12.135 20.767l-75.149 20.417c-1.556-1.908-3.204-3.755-4.966-5.516l-53.515-53.515c-1.688-1.688-3.458-3.273-5.287-4.774l8.401-31.354c1.072-4.001-1.302-8.113-5.303-9.186-4.001-1.071-8.114 1.303-9.185 5.304l-7.125 26.59c-11.416-5.804-24.285-8.571-37.322-7.808-20.786 1.225-40.076 11.272-52.922 27.563-.264.334-.705.894-160.605 228.843-2.378 3.391-1.558 8.068 1.833 10.447 1.311.919 2.813 1.36 4.301 1.36 2.362 0 4.687-1.113 6.146-3.193 15.985-22.787 30.858-43.99 44.588-63.562l43.664 43.664c1.464 1.464 3.384 2.197 5.303 2.197s3.839-.732 5.303-2.197c2.929-2.929 2.929-7.678 0-10.606l-45.525-45.525c47.413-67.585 79.982-113.998 95.846-136.588l52.202 52.202c1.465 1.464 3.385 2.197 5.304 2.197s3.839-.732 5.304-2.197c2.929-2.929 2.929-7.678 0-10.606l-54.056-54.055c1.251-1.779 2.013-2.86 2.266-3.214 10.197-12.859 25.47-20.786 41.93-21.756 16.484-.967 32.646 5.174 44.331 16.86l53.515 53.515c12.129 12.128 18.23 28.883 16.742 45.97-1.489 17.087-10.397 32.535-24.44 42.382l-18.444 12.935c-3.391 2.378-4.212 7.056-1.834 10.447 2.378 3.392 7.055 4.213 10.447 1.835l18.444-12.935c17.681-12.399 28.896-31.849 30.771-53.362 1.192-13.685-1.497-27.195-7.532-39.15l70.477-19.147c17.079-4.578 27.268-22.132 22.714-39.132z"/></g></g></svg>