<svg id="Capa_1" enable-background="new 0 0 512 512" height="512" viewBox="0 0 512 512" width="512" xmlns="http://www.w3.org/2000/svg"><g><g><path d="m399.724 254.096c-3.235 22.67-30.339 39.368-36.404 59.467-6.785 22.489 5.952 51.703-3.536 69.732-11.497 21.845-42.63 26.275-56.658 39.444-18.822 17.669-32.986 46.137-53.042 43.275-20.057-2.862-25.693-34.155-38.822-56.384-9.785-16.567-38.436-29.528-43.365-53.716-4.068-19.963 16.333-44.448 16.108-67.937-.201-20.993-21.553-44.605-18.319-67.275 3.235-22.67 30.339-39.368 36.404-59.467 6.785-22.489-5.953-51.703 3.536-69.732 11.497-21.844 42.63-26.274 56.658-39.444 2.549-2.393 6.012-3.983 8.416-6.667 1.202-1.342 1.39-3.708 2.566-5.084 13.837-16.191 26.078-33.804 42.06-31.524 20.057 2.862 25.693 34.155 38.822 56.384 9.785 16.567 38.436 29.528 43.365 53.716 4.068 19.963-16.333 44.448-16.108 67.937.201 20.992 21.553 44.604 18.319 67.275z" fill="#0bb494"/><path d="m291.728 306.993 4.278-119.297c.408-11.369-9.383-12.766-12.171-1.737l-29.257 115.727c-8.085 31.978-18.907 62.617-32.513 90.342-4.973 10.133-8.564 22.125-10.109 35.174-4.323 36.522 9.495 68.717 31.461 73.297.465.097.93.181 1.394.253 1.24.192 2.48-.705 3.718-.688 1.405.02 2.807.93 4.202.735 20.924-2.928 40.305-29.552 45.251-64.212 1.622-11.37 1.51-22.341-.054-32.258-4.924-31.224-7.401-63.828-6.2-97.336z" fill="#bbf49b"/><path d="m348.351 238.458c0 22.9-24.474 43.259-27.638 64.013-3.541 23.222 13.196 50.344 6.349 69.532-8.296 23.249-38.491 32.033-50.518 47.052-16.137 20.151-26.137 50.334-46.397 50.334s-30.26-30.183-46.398-50.335c-12.027-15.019-42.222-23.802-50.518-47.052-6.847-19.188 9.89-46.309 6.35-69.531-3.164-20.754-27.638-41.113-27.638-64.013s24.474-43.259 27.638-64.013c3.541-23.222-13.196-50.344-6.349-69.532 8.296-23.25 38.491-32.033 50.518-47.052 11.606-14.493 20.038-34.177 31.396-44.087 4.433-3.868 7.313-4.247 13-4.247 16.503 0 28.199 18.029 39.95 36.348 2.674 4.169 5.456 8.25 8.447 11.987 12.027 15.019 42.222 23.802 50.518 47.052 6.847 19.188-9.89 46.31-6.35 69.531 3.166 20.754 27.64 41.113 27.64 64.013z" fill="#6fd7a3"/><path d="m320.713 302.471c3.164-20.754 27.638-41.113 27.638-64.013s-24.474-43.259-27.638-64.013c-3.54-23.221 13.197-50.343 6.35-69.531-8.296-23.249-38.491-32.033-50.518-47.052-16.137-20.151-26.138-50.335-46.398-50.335-5.688 0-10.567 2.38-15 6.248 11.358 9.91 19.791 29.593 31.397 44.087 12.027 15.019 42.222 23.802 50.518 47.052 6.847 19.188-9.89 46.31-6.35 69.531 3.164 20.754 27.638 41.113 27.638 64.013s-24.474 43.259-27.638 64.013c-3.541 23.222 13.196 50.344 6.349 69.532-8.296 23.249-38.491 32.033-50.518 47.051-11.607 14.494-20.039 34.176-31.397 44.086 4.433 3.868 9.312 6.248 15 6.248 20.259 0 30.26-30.183 46.397-50.334 12.027-15.019 42.222-23.802 50.518-47.051 6.848-19.188-9.889-46.31-6.348-69.532z" fill="#3ec3a4"/><path d="m228.75 504.028c5.253 0 9.973-.945 14.671-3.52 17.42-9.545 29.987-35.375 29.987-67.014 0-11.485-1.661-22.33-4.611-31.927-9.285-30.217-16.343-62.144-19.887-95.486l-12.617-118.705c-1.202-11.313-11.092-11.313-12.294 0l-12.616 118.7c-3.486 32.799-9.964 59.141-19.425 94.029-15.336 56.55 7.173 93.429 27.392 102.295 3.127 1.371 6.531 1.628 9.4 1.628z" fill="#bbf49b"/><path d="m268.798 401.566c-9.285-30.217-16.343-62.144-19.887-95.486l-12.617-118.705c-1.202-11.313-11.092-11.313-12.294 0l-3.853 36.249 8.764 82.456c3.544 33.342 10.602 65.269 19.887 95.486 2.949 9.597 4.611 20.442 4.611 31.927 0 34.053-14.559 61.366-34.056 68.901 3.126 1.37 6.199 2.078 9.067 2.078 24.73 0 44.99-30.806 44.99-70.978-.002-11.485-1.663-22.33-4.612-31.928z" fill="#9be69d"/></g><path d="m397.299 213.56c-4.279-9.708-8.321-18.877-8.398-26.838-.092-9.606 4.115-20.216 8.184-30.476 5.098-12.856 10.369-26.149 7.774-38.887-3.202-15.717-14.266-26.719-25.323-36.642-3.083-2.767-7.825-2.51-10.591.573s-2.51 7.824.573 10.591c9.191 8.247 18.355 17.238 20.643 28.472 1.704 8.363-2.533 19.05-7.02 30.363-4.602 11.604-9.359 23.603-9.239 36.148.106 11.046 4.969 22.077 9.671 32.745 5.24 11.887 10.189 23.114 8.722 33.398s-9.359 19.679-17.715 29.626c-7.499 8.927-15.253 18.158-18.444 28.734-3.624 12.01-2.412 24.861-1.24 37.289 1.142 12.117 2.222 23.563-1.753 31.115-5.887 11.186-18.864 17.34-31.414 23.291-5.468 2.593-10.744 5.104-15.458 7.999-.141-1.718-.332-3.42-.553-5.114 11.507-7.809 23.264-17.05 28.404-31.454 4.369-12.243 1.028-26.148-2.203-39.596-2.578-10.732-5.244-21.83-3.796-31.327 1.2-7.871 6.497-16.378 12.105-25.384 7.679-12.331 15.619-25.083 15.619-39.759 0-14.677-7.94-27.429-15.619-39.761-5.608-9.006-10.905-17.512-12.104-25.383-1.448-9.496 1.218-20.594 3.796-31.326 3.23-13.447 6.571-27.353 2.203-39.595-5.928-16.614-20.66-26.362-33.658-34.964-7.279-4.816-14.154-9.365-18.07-14.256-1.631-2.036-3.212-4.215-4.758-6.471 2.156-2.487 4.262-5 6.317-7.464 10.486-12.573 20.407-24.441 30.309-23.031 9.917 1.415 16.103 15.584 22.652 30.586 2.738 6.272 5.57 12.758 8.893 18.87 1.36 2.501 3.936 3.918 6.596 3.918 1.21 0 2.438-.293 3.576-.912 3.639-1.979 4.985-6.532 3.006-10.172-3.013-5.542-5.713-11.726-8.324-17.706-7.907-18.11-16.082-36.837-34.28-39.433-18.207-2.588-31.29 13.097-43.948 28.272-1.066 1.279-2.148 2.57-3.236 3.861-10.246-16.577-20.938-33.46-39.054-33.46-18.382 0-29.121 17.384-39.506 34.194-4.034 6.53-8.205 13.281-12.746 18.951-3.916 4.891-10.791 9.439-18.07 14.256-12.997 8.602-27.729 18.35-33.658 34.964-4.368 12.242-1.028 26.147 2.203 39.595 2.579 10.732 5.245 21.83 3.796 31.327-.493 3.232-1.729 6.84-3.781 11.027-1.822 3.72-.284 8.213 3.436 10.035 3.719 1.824 8.212.284 10.035-3.436 2.732-5.578 4.414-10.604 5.14-15.366 1.891-12.403-1.125-24.954-4.041-37.092-2.843-11.834-5.528-23.012-2.66-31.05 4.248-11.905 16.225-19.83 27.808-27.495 8.287-5.484 16.115-10.664 21.5-17.389 5.113-6.385 9.528-13.532 13.798-20.444 8.603-13.924 16.728-27.077 26.746-27.077s18.143 13.153 26.746 27.079c4.27 6.912 8.685 14.06 13.798 20.444 5.385 6.725 13.213 11.904 21.5 17.389 11.583 7.664 23.56 15.59 27.808 27.495 2.869 8.038.183 19.216-2.66 31.05-2.916 12.138-5.931 24.688-4.04 37.092 1.664 10.92 8.037 21.153 14.2 31.05 6.867 11.027 13.352 21.443 13.352 31.832 0 10.388-6.485 20.803-13.352 31.83-6.163 9.897-12.536 20.131-14.2 31.052-1.892 12.402 1.124 24.954 4.039 37.092 2.843 11.834 5.528 23.012 2.66 31.051-4.248 11.904-16.225 19.83-27.808 27.495-5.045 3.339-9.917 6.567-14.174 10.098-.594-2.612-1.273-5.187-2.049-7.712-5.763-18.756-10.416-37.497-13.938-56.043l36.795-55.46c2.29-3.452 1.349-8.106-2.103-10.397-3.451-2.287-8.106-1.347-10.396 2.104l-27.911 42.07c-.782-5.475-1.468-10.927-2.044-16.35l-3.458-32.532c.392-.376.756-.791 1.069-1.263l38.332-57.775c2.29-3.452 1.349-8.107-2.103-10.396-3.452-2.288-8.106-1.348-10.396 2.104l-29.355 44.245-6.706-63.087c-1.115-10.494-7.637-15.191-13.605-15.191s-12.49 4.698-13.605 15.191l-2.659 25.017-26.824-40.43c-2.29-3.451-6.945-4.393-10.396-2.104-3.452 2.29-4.393 6.944-2.103 10.396l36.837 55.523-6.606 62.151-30.822-46.457c-2.29-3.451-6.945-4.393-10.396-2.104-3.452 2.29-4.393 6.944-2.103 10.397l40.642 61.27c-3.742 27.684-9.535 53.712-17.287 77.541-.978 3.006-1.825 6.113-2.544 9.293-4.258-3.532-9.131-6.761-14.178-10.101-11.583-7.665-23.56-15.591-27.808-27.495-2.869-8.039-.183-19.217 2.66-31.051 2.916-12.137 5.931-24.688 4.04-37.091-1.665-10.92-8.038-21.154-14.2-31.052-6.866-11.026-13.352-21.442-13.352-31.83 0-5.55 1.891-11.694 5.95-19.335 1.943-3.658.553-8.199-3.105-10.142-3.657-1.942-8.198-.554-10.142 3.104-3.307 6.225-7.703 15.73-7.703 26.372 0 14.676 7.94 27.428 15.619 39.76 5.608 9.006 10.905 17.512 12.105 25.384 1.448 9.496-1.219 20.593-3.797 31.325-3.231 13.447-6.571 27.353-2.203 39.596 5.928 16.613 20.66 26.362 33.658 34.963 7.239 4.791 14.08 9.317 18.006 14.177l1.789 2.373c-.21 3.477-.282 6.984-.199 10.498.096 4.003.39 8.018.874 11.934.508 4.11 4.246 7.035 8.363 6.524 4.111-.508 7.032-4.252 6.524-8.362-.423-3.428-.68-6.944-.764-10.455-.283-11.813 1.333-23.483 4.673-33.749 9.456-29.07 16.101-61.22 19.751-95.557l7.759-72.997c0-.002.001-.005.001-.008l3.546-33.363 11.306 106.373c3.368 31.686 10.156 64.287 20.176 96.896 2.839 9.24 4.279 19.24 4.279 29.724 0 23.435-7.458 44.989-19.463 56.251-1.812 1.699-3.663 3.098-5.547 4.204-.229.116-.452.242-.668.381-3.669 2.01-7.461 2.904-11.334 2.658-9.405-.602-18.609-8.424-25.25-21.463-1.881-3.691-6.398-5.159-10.087-3.278-3.691 1.88-5.159 6.395-3.279 10.087 9.107 17.879 22.834 28.676 37.66 29.623.742.048 1.48.071 2.219.071 5.329 0 10.553-1.233 15.518-3.639 1.082.103 2.167.159 3.253.159 8.055 0 16.153-2.82 23.72-8.31 16.642-12.076 28.888-35.473 32.757-62.588.358-2.506.621-4.997.826-7.477.687-.687 1.36-1.341 2.026-1.966 4.567-4.287 12.016-7.82 19.903-11.56 14.082-6.679 30.044-14.248 38.259-29.858 6.055-11.503 4.712-25.741 3.413-39.51-1.037-10.989-2.108-22.353.666-31.548 2.3-7.623 8.746-15.296 15.569-23.42 9.344-11.123 19.006-22.625 21.079-37.154 2.071-14.53-3.988-28.276-9.848-41.568zm-127.373 269.134c7.036-13.652 10.979-30.842 10.979-49.228 0-2.531-.091-5.034-.239-7.518.581-.774 1.155-1.516 1.728-2.232 2.237-2.794 5.442-5.477 9.135-8.161.311 6.481-.006 13.153-.975 19.947-2.738 19.184-10.405 36.468-20.628 47.192z"/></g></svg>