<svg id="Capa_1" enable-background="new 0 0 512 512" height="512" viewBox="0 0 512 512" width="512" xmlns="http://www.w3.org/2000/svg"><g><path d="m371.293 8.546c6.246-.588 10.53 3.505 10.174 9.768-.981 17.265-5.839 50.52-27.749 73.255-30.768 31.928-82.512 31.019-82.512 31.019s-2.859-52.674 27.908-84.602c17.41-18.066 41.856-25.619 59.801-28.771 4.638-.815 8.842-.336 12.378-.669z" fill="#bbf49b"/><path d="m371.293 7.546c-3.534.332-7.742.858-12.377 1.672 2.896 1.93 4.767 5.293 4.551 9.097-.981 17.265-5.839 50.519-27.749 73.254-19.007 19.723-46.396 26.913-64.56 29.53.021.963.049 1.488.049 1.488s52.744.909 83.512-31.019c21.909-22.735 26.767-55.99 27.749-73.254.355-6.263-4.929-11.355-11.175-10.768z" fill="#9be69d"/><path d="m277.034 55.528c0-11.616-9.417-21.033-21.034-21.033-11.617 0-21.033 9.417-21.033 21.033v93.196h42.067z" fill="#b67f5f"/><path d="m339.302 108.343c-5.049 0-14.955-.217-14.955-.217-7.639.809-15.104 2.24-22.35 4.277-30.204 8.492-61.789 8.492-91.994 0-11.91-3.348-24.412-5.06-37.306-5.06-81.062 0-146.775 67.463-146.775 184.764s89.888 212.392 170.95 212.392c13.11 0 25.186-2.489 36.219-7.158 14.609-6.181 31.209-6.181 45.818 0 6.775 2.866 13.942 4.911 21.501 6.063 4.752.724 9.658.095 14.718.095 81.062 0 169.95-94.092 169.95-211.392 0-117.301-64.714-183.764-145.776-183.764z" fill="#ed5469"/><path d="m339.302 107.343c-5.05 0-10.036.272-14.954.792 73.989 7.866 131.719 74.027 131.719 183.972 0 109.962-78.993 200.407-155.657 211.294 4.752.724 9.657 1.099 14.717 1.099 81.062 0 170.95-95.092 170.95-212.392.001-117.302-65.713-184.765-146.775-184.765z" fill="#e63850"/></g><g style="fill:none;stroke:#000;stroke-width:15;stroke-linecap:round;stroke-linejoin:round;stroke-miterlimit:10"><path d="m42.337 200.391c-10.488 25.759-16.414 56.491-16.414 91.716 0 117.301 89.888 212.392 170.95 212.392 13.11 0 25.186-2.489 36.219-7.158 14.608-6.181 31.209-6.181 45.818 0 11.033 4.668 23.108 7.157 36.219 7.157 81.062 0 170.95-95.092 170.95-212.392 0-117.301-65.713-184.764-146.775-184.764-12.893 0-25.395 1.712-37.305 5.06-30.204 8.492-61.789 8.492-91.994 0-11.91-3.348-24.412-5.06-37.306-5.06-46.741 0-88.38 22.43-115.26 63.913"/><g><path d="m378.218 46.505c2.745-10.905 3.837-20.953 4.249-28.191.356-6.264-4.928-11.356-11.174-10.768-17.217 1.619-50.269 7.704-72.178 30.439-8.94 9.277-15.037 20.306-19.194 31.285v47.772c7.413-1.056 14.786-2.589 22.076-4.639 10.095-2.838 20.619-4.487 31.442-4.928 7.593-4.095 14.908-9.295 21.28-15.907 4.362-4.526 8.047-9.469 11.161-14.619"/><path d="m279.07 117.164c-1.42.194-2.84.379-4.263.538 1.422-.16 2.843-.343 4.263-.538z"/></g><path d="m234.967 88.72v28.713c13.98 1.755 28.087 1.755 42.067 0v-61.905c0-11.617-9.417-21.034-21.033-21.034-11.617 0-21.033 9.417-21.033 21.034"/></g></svg>